/* XPM */
static char *d736e14ce3b14751b7b37aa9f5d2aafdQt7wW8acLkd0SpjG[] = {
/* columns rows colors chars-per-pixel */
"32 32 159 2 ",
"   c None",
".  c #76533C",
"X  c #505051",
"o  c #664A40",
"O  c #6B4D42",
"+  c #715442",
"@  c #745843",
"#  c #7B5F42",
"$  c #7C6041",
"%  c #707172",
"&  c #895F3A",
"*  c #9B6A2D",
"=  c #986938",
"-  c #95693A",
";  c #827239",
":  c #A9732B",
">  c #B3792B",
",  c #BB7E2B",
"<  c #A36E35",
"1  c #A17030",
"2  c #A87A38",
"3  c #8C7044",
"4  c #9A7E46",
"5  c #917545",
"6  c #7C953C",
"7  c #739D3E",
"8  c #7A9B3E",
"9  c #75A43F",
"0  c #76AC41",
"q  c #78AC41",
"w  c #7AB342",
"e  c #8F8134",
"r  c #849239",
"t  c #91913F",
"y  c #A5943D",
"u  c #CC882D",
"i  c #D28B2D",
"p  c #D7902E",
"a  c #DC922E",
"s  c #C38A33",
"d  c #CB8E31",
"f  c #C79537",
"g  c #CB9335",
"h  c #C49539",
"j  c #C69A3C",
"k  c #CB9B3B",
"l  c #D39433",
"z  c #DE9730",
"x  c #D69835",
"c  c #D99B36",
"v  c #E4962E",
"b  c #EC9B2E",
"n  c #F19E2F",
"m  c #E09730",
"M  c #E59F33",
"N  c #EB9F31",
"B  c #F29F30",
"V  c #CBA13E",
"C  c #D6A43E",
"Z  c #D9A33D",
"A  c #F4A02F",
"S  c #E2A036",
"D  c #EAA738",
"F  c #ECAB3B",
"G  c #EBA335",
"H  c #F1A332",
"J  c #F1AA38",
"K  c #EFB33F",
"L  c #F0B23E",
"P  c #9E8346",
"I  c #8E9940",
"U  c #929E41",
"Y  c #A38C43",
"T  c #AE8A41",
"R  c #AB8C4F",
"E  c #B68943",
"W  c #BA8B4B",
"Q  c #A69143",
"!  c #AB9245",
"~  c #A09D43",
"^  c #AE9845",
"/  c #AD9248",
"(  c #B49D45",
")  c #B99F44",
"_  c #B59A48",
"`  c #AD8B57",
"'  c #AA8351",
"]  c #B08950",
"[  c #AB9650",
"{  c #AC9A54",
"}  c #B39E55",
"|  c #83A140",
" . c #9EA043",
".. c #A2A244",
"X. c #ABA445",
"o. c #B0A646",
"O. c #BBA347",
"+. c #BCA44B",
"@. c #B9AA48",
"#. c #B5A155",
"$. c #A6986D",
"%. c #BE9F75",
"&. c #C49750",
"*. c #C5A444",
"=. c #CCA744",
"-. c #C6AB47",
";. c #CBAA46",
":. c #C5AB49",
">. c #CDAE49",
",. c #D3AC44",
"<. c #DCAC42",
"1. c #CFB247",
"2. c #CEB34B",
"3. c #D4B047",
"4. c #DBB147",
"5. c #D3B54B",
"6. c #D5BA4E",
"7. c #DBBC4E",
"8. c #D9B34C",
"9. c #CDA857",
"0. c #C7B15C",
"q. c #C8B25C",
"w. c #E4AF41",
"e. c #E2B345",
"r. c #EEBC47",
"t. c #E2BD4C",
"y. c #EBBD48",
"u. c #F0BB45",
"i. c #C09E69",
"p. c #C6A060",
"a. c #C8AE6F",
"s. c #CCA672",
"d. c #CAAA70",
"f. c #DDC04F",
"g. c #DFC050",
"h. c #E3C34F",
"j. c #EDC44C",
"k. c #F0C24B",
"l. c #F0C84E",
"z. c #E4C551",
"x. c #E6C852",
"c. c #ECCC53",
"v. c #B2A686",
"b. c #B6A58E",
"n. c #AEAEAE",
"m. c #B7B8B9",
"M. c #C7A981",
"N. c #C5AD89",
"B. c #BFBFC0",
"V. c #C1C1C1",
"C. c #CBCCCB",
"Z. c #D2D1CD",
"A. c #D5D5D5",
"S. c #D8D7D5",
"D. c #D8D8D6",
"F. c #DBDAD8",
"G. c #E2E3E4",
"H. c #EAEBED",
"J. c #F1F1F1",
/* pixels */
"                                                                ",
"                                                                ",
"                                                                ",
"                                                                ",
"                                                                ",
"                                                                ",
"                          1                                     ",
"                      * a b b S l f *.( ;                       ",
"                o O O . & - 2 4.e.T 4 3 + o O o                 ",
"                * < - # @ + O / _ O + + # 5 P Y                 ",
"              : b b g ) ! Y ! 7.7./ Q Q O.:.z.c.5.              ",
"              a b f 5.x.x.5.>.c.j.3.2.j.x.6.:.z.c.:.            ",
"            , n s } q.q.q.q.[ ;.Z / q.q.0.0.#.O.c.z.            ",
"            a b %.D.F.D.D.D.Z.i.&.C.D.A.A.n.% v.z.c.^           ",
"          > n b N.G.V.G.J.J.H.d.E b.M.s.s.i.` ` 4.c.O.          ",
"          , n H d.m.X V.G.G.Z.9.g g b b n n G j j.c.:.          ",
"          u n N 8.$.' E W ] ` 4.y.j a H H D j 3.z.c.6.          ",
"          i H m *.1.k b S V 3.>.c.h.*.<.y.;.C *.8.c.6.          ",
"          i n B c *.=.Z Z 7.5.:.2.c.c.8.<.;.*.,.j.c.7.          ",
"          v n n J D x g g Z 5.O.2.c.c.3.*.,.h.c.l.c.h.          ",
"          v n B J y.J H L k.c.z.c.c.c.c.l.k.c.6.x.c.x.          ",
"          v B G <.c.j.K e.4.e.t.f.2.>.>.5.h.7.-.:.z.c.^         ",
"          v N *.*.:.*.y r r 6 6 8 e l l g s s k 2.:.c.(         ",
"        > n i j >.6.t. .0 0 q q | -.j.j.u.L K ;.:.z.c.(         ",
"        > B p h -.@.x.o.7 t 8 0 X.c.c.c.c.c.c.c.c.c.c.:.        ",
"        , n B e.x.c.c.7.U :.8 0 @.c.c.c.c.c.c.c.c.c.c.:.        ",
"        , n n L l.c.c.c.c.7.8 7 2.c.c.c.c.c.c.c.c.c.c.:.        ",
"        y n B H j.c.c.f.z.c.U 6 g.c.c.c.c.c.c.c.c.c.c.:.        ",
"        , n n A j.x.x.I  .c.f.:.c.c.c.c.c.c.c.c.c.c.c.:.        ",
"        , n B A j.l.x.t ..c.x.c.c.c.c.c.c.c.c.c.c.c.c.:.        ",
"        , n B L x.l.x.f.f.c.c.c.c.c.c.c.c.c.c.c.c.c.c.:.        ",
"        , n n u.x.c.c.c.c.c.c.c.c.c.c.c.c.c.c.c.c.c.c.:.        "
};
