/* XPM */
static char *_9f190aafd5d4b14df9a751e89ee2c64u37tOuI215mCg0vg[] = {
/* columns rows colors chars-per-pixel */
"32 32 7 1 ",
"  c None",
". c black",
"X c #362516",
"o c #D91A1A",
"O c #876B08",
"+ c #FFC700",
"@ c white",
/* pixels */
"                                ",
"                                ",
"                                ",
"                                ",
"                                ",
"                                ",
"                                ",
"                                ",
"                                ",
"                                ",
"          O.        .O          ",
"         OX          XO         ",
"        X+.  .XOOX.  .+X        ",
"        X@. .O+@@++. .@X        ",
"        X@+.++XooX++.+@X        ",
"        .O+++Xo.@oX+++O.        ",
"         .OO+Oo..oO+OO.         ",
"          ..O+OooO+O..          ",
"            .O++++O.            ",
"             ..OO..             ",
"           .  .O+.              ",
"           .O..O+.              ",
"            .++++.              ",
"             ..O+.              ",
"              .O+.              ",
"               ..               ",
"                                ",
"                                ",
"                                ",
"                                ",
"                                ",
"                                "
};
