/* XPM */
static char *_93ec7af87b9479cc05039ade37f616atI11Hl4pXfk9rYEn[] = {
/* columns rows colors chars-per-pixel */
"32 32 158 2 ",
"   c #202020",
".  c #282521",
"X  c #2D2821",
"o  c #2C2C2C",
"O  c #35322D",
"+  c #3C362E",
"@  c #353434",
"#  c #393733",
"$  c #3C3935",
"%  c #3C3C3C",
"&  c #483C29",
"*  c #413E39",
"=  c #3A413A",
"-  c #3C4A3D",
";  c #5D4725",
":  c #40403F",
">  c #5B4E38",
",  c #674D25",
"<  c #6D5229",
"1  c #795725",
"2  c #6C583A",
"3  c #725831",
"4  c #715C3D",
"5  c #3F5340",
"6  c #464646",
"7  c #474847",
"8  c #4F4F4F",
"9  c #4E4B45",
"0  c #514C45",
"q  c #415742",
"w  c #585858",
"e  c #625747",
"r  c #6A5F4E",
"t  c #6F5D43",
"y  c #5E675E",
"u  c #507252",
"i  c #84622D",
"p  c #8B6429",
"a  c #926727",
"s  c #9D712B",
"d  c #966F33",
"f  c #A2722B",
"g  c #A8772C",
"h  c #AF7928",
"j  c #B47D2B",
"k  c #B87F29",
"l  c #876A42",
"z  c #957443",
"x  c #A07B41",
"c  c #779F40",
"v  c #6B916E",
"b  c #5EA662",
"n  c #7EC447",
"m  c #6BD64F",
"M  c #7BD44B",
"N  c #75D54C",
"B  c #79D350",
"V  c #69E154",
"C  c #65D26B",
"Z  c #6DD372",
"A  c #74E47A",
"S  c #9C9C32",
"D  c #AF8627",
"F  c #BC8D26",
"G  c #B6802F",
"H  c #BC8128",
"J  c #B38B2B",
"K  c #A6922D",
"L  c #AC9B32",
"P  c #B19731",
"I  c #B59E31",
"U  c #BC9F34",
"Y  c #B89628",
"T  c #81AE3D",
"R  c #9AA639",
"E  c #99AE3B",
"W  c #81B33F",
"Q  c #AFA134",
"!  c #A9AC34",
"~  c #B7A536",
"^  c #BFA134",
"/  c #ADBB3A",
"(  c #B7B737",
")  c #B2BA39",
"_  c #B9B636",
"`  c #CF8B07",
"'  c #DB9215",
"]  c #E09803",
"[  c #E5991D",
"{  c #C58627",
"}  c #CA8927",
"|  c #C2862A",
" . c #C98C29",
".. c #D18D26",
"X. c #C39D2B",
"o. c #CE9D2A",
"O. c #D79126",
"+. c #DB9325",
"@. c #D49B26",
"#. c #DD9925",
"$. c #D3922E",
"%. c #D59928",
"&. c #C59E33",
"*. c #D79B30",
"=. c #DD9A30",
"-. c #D59330",
";. c #E29724",
":. c #E59B25",
">. c #E99B24",
",. c #EA9E2B",
"<. c #E69F31",
"1. c #CFAA2E",
"2. c #C5A52F",
"3. c #D5A62B",
"4. c #DCA42A",
"5. c #D2A82D",
"6. c #C6AF31",
"7. c #C9AD30",
"8. c #CAA237",
"9. c #D7A13C",
"0. c #DBA73B",
"q. c #E0A027",
"w. c #EBA029",
"e. c #E9A225",
"r. c #E7A033",
"t. c #9AC03F",
"y. c #A3C33E",
"u. c #88BD45",
"i. c #AA9E79",
"p. c #CA9646",
"a. c #C9A14B",
"s. c #E8A742",
"d. c #8BC644",
"f. c #8FC843",
"g. c #9FC641",
"h. c #99CE48",
"j. c #94C843",
"k. c #87D047",
"l. c #8BD047",
"z. c #84D34A",
"x. c #80D954",
"c. c #BBC765",
"v. c #C8CD70",
"b. c #8FA692",
"n. c #B4C684",
"m. c #AEDA87",
"M. c #86EA8B",
"N. c #8FED95",
"B. c #BFE28E",
"V. c #A9E993",
"C. c #9EF2A3",
"Z. c #A6F2AA",
"A. c #B2E9B6",
"S. c #BAFBBE",
"D. c #B3F9B8",
"F. c #BEFCC2",
"G. c #C2FEC6",
"H. c #C5FFC9",
/* pixels */
"6 6 6 7 6 o     % % % % % 6 6 6 % % : 6 6 o     o o @ % % % % % ",
"6 6 6 7 6 o     % % % % % * 6 6 % % : 6 6 o     o o O % % % % % ",
"6 6 7 6 6 o     % % % % % 5 : 6 % % : 6 6 o     o o @ % % % % % ",
"6 6 6 6 6 o     % % % % % 6 6 6 % % : 6 6 o     o o @ % % % % % ",
"6 7 6 7 6 o     % % % r p.~ m X.+.+.k 4 6 o     o o @ % % % % % ",
": % : : : o     @ > ,.;.N :.>.q.) ,.>.+.{ f .   % @ @ @ o @ o @ ",
"% % % % % .     j :.>.M >.>.>.>.>.>.( :.;.} k 1 % % @ o o o o o ",
"% % % % % o    .>.>.M q.6.y.( :.>.>.#.,.>.;.` H f % % o o o o o ",
"            G :.>.z.>.>.>.>.>.e.y.( d.>.>.,.O.| k a             ",
"          l #.>.4.@.>.>.>.>.>.>.>.>.>.,.+.I <.z | k &           ",
"o o o o o L / / V 3.>.>.>.>.>.>.e.[ :.X.<.V.<.@ e n.H o o o o o ",
"6 6 6 6 t } :.,.@.>.5.j.z.3.>.>.[ [ %.<.<.=.$ @ % % z 2 6 6 6 6 ",
"6 6 6 6 j $.>.h.:.>.>.>.>.:.z.>.>.>.2.i % @ % Z.G.H.b.x 6 7 7 7 ",
": : : : k +.>.B >.>.>.>.>.>.6.>.>.%.<.<.@ @ Z.G.H.H.H.y % * % : ",
"% % % : R +.,.E >.>.>.>.>.>.1.>.,.Q v.s.$ b F.H.H.H.G.A.: % % % ",
"% % % 7 H %.g.m T K F  .F J S >.,.&.c.*.@ M.F.H.H.H.G.F.6 % % % ",
"o o o O H O.w.F >.>.>.>.>.>.>.>.>.=.<.-.% N.F.H.H.H.H.F.6 % % % ",
"o o o o H ..w.Y >.>.>.>.>.>.>.e.>.=.d @ = N.G.H.H.H.G.F.6 % % % ",
"o o o o H { >.! >.>.>.>.>.>.' ' >.-.& % $ M.G.H.H.H.H.A.* o @ @ ",
"        p n 2.z.>.>.>.>.>.>.>.>.>.$.<.d % A S.G.H.H.H.v o       ",
"        X H } B W d.f.f.f.E 3.>.>.2.B.a.@ C C.F.H.H.G.@         ",
"% # % % $ h H 8.:.>.>.>.>.>.J >.>.I 0.<.# - A Z.S.D.u 7 6 6 6 6 ",
"6 6 6 6 6 O H | k.>.>.>.>.>.>.S >.:.<.<.@ % 5 C Z q 0 w w w w w ",
"6 6 6 6 6 o , R u.>.>.>.>.>.3.) >.>.P $.i | + @ @ i.7 w w w w w ",
"w w w w w @   1 k M 3.7.5.>.>.>.>.>.;.P -.m.k < p o @ 6 6 6 6 6 ",
"w w w w w o     2 G 7.>.>.>.>.:.;.] { H k k k , o o @ 6 6 6 6 6 ",
"8 8 8 8 8 o     @ % c  .O.O... .{ k k H H f     o @ @ 6 : 6 6 5 ",
"% % % % % o     o o @ o O 3 g j k k f 4 7 o     o o @ % % % % @ ",
"% % % % % .     o o o o o $ % % o o $ 6 6 o     o o @ % % % % % ",
"% % % % % o     o o o o o @ % % o o @ 6 6 o     o o @ % % % % % ",
"% % % % % o     @ o o o o % % % o o @ 7 6 o     o o @ @ % % % % ",
"% % % % % o     o o o o o @ % : o o @ 6 6 o     o o @ % % % % % "
};
