/* XPM */
static char *_d9483666bf74c99d5793e000dbede7bqYKKUhlc1tLFQOFx[] = {
/* columns rows colors chars-per-pixel */
"26 32 154 2 ",
"   c #000000",
".  c #000709",
"X  c #01090C",
"o  c #010C11",
"O  c #01141A",
"+  c #011B24",
"@  c #011F2A",
"#  c #02212B",
"$  c #012332",
"%  c #022836",
"&  c #012B3B",
"*  c #012F43",
"=  c #013245",
"-  c #00354B",
";  c #003752",
":  c #013A54",
">  c #003B58",
",  c #003F61",
"<  c #00415C",
"1  c #004461",
"2  c #004863",
"3  c #00496B",
"4  c #004673",
"5  c #004C73",
"6  c #005575",
"7  c #01537B",
"8  c #005481",
"9  c #01518A",
"0  c #015A8C",
"q  c #035794",
"w  c #055C96",
"e  c #045F9A",
"r  c #03648C",
"t  c #046393",
"y  c #03619B",
"u  c #0562A2",
"i  c #0867A6",
"p  c #0B6AA0",
"a  c #0B6CAB",
"s  c #0C7CA3",
"d  c #1574B7",
"f  c #1475BA",
"g  c #1E7FBB",
"h  c #187AC1",
"j  c #1385AD",
"k  c #1A84AE",
"l  c #1F8EB4",
"z  c #1B91B9",
"x  c #2081B0",
"c  c #258CB7",
"v  c #2585BD",
"b  c #2887BF",
"n  c #218CB9",
"m  c #2C97BF",
"M  c #3594BF",
"N  c #2585C7",
"B  c #2E8BC2",
"V  c #2283C8",
"C  c #2A8ACD",
"Z  c #369FC4",
"A  c #3C9AC7",
"S  c #3796CD",
"D  c #3F9BD3",
"F  c #3FA4C7",
"G  c #459FD4",
"H  c #42A1CA",
"J  c #4AAECE",
"K  c #4EA9D9",
"L  c #5BAED7",
"P  c #54ABDC",
"I  c #58AFDE",
"U  c #5EB4D3",
"Y  c #55B9D6",
"T  c #58B8D7",
"R  c #64BBD5",
"E  c #61B2DA",
"W  c #6CB7DA",
"Q  c #6ABBDE",
"!  c #5DB2E1",
"~  c #60B5E1",
"^  c #6BBCE4",
"/  c #73BFE7",
"(  c #77C6DE",
")  c #73C3E9",
"_  c #80C6E7",
"`  c #82C9E6",
"'  c #85CAEA",
"]  c #90CFE7",
"[  c #93CFE8",
"{  c #8DD1E3",
"}  c #9CD5E5",
"|  c #92D1EC",
" . c #9AD4EA",
".. c #9FD9EE",
"X. c #A3D6E6",
"o. c #A6D8E7",
"O. c #A1D7EB",
"+. c #A3DBEC",
"@. c #AEDDEC",
"#. c #B1DFEC",
"$. c #B4E1EE",
"%. c #BCE3EE",
"&. c #B6E4F1",
"*. c #BBE5F1",
"=. c #C4E5EE",
"-. c #CAE7EE",
";. c #CDE8EF",
":. c #D5EBEF",
">. c #DEEDEF",
",. c #C4E9F2",
"<. c #CCEAF2",
"1. c #D3EDF2",
"2. c #DBEEF1",
"3. c #DDF0F4",
"4. c #E2EFF3",
"5. c #E3F1F4",
"6. c #ECF4F5",
"7. c #EFF4F4",
"8. c #EDF4F7",
"9. c #EEF4F6",
"0. c #EEF5F6",
"q. c #EFF5F6",
"w. c #EBF3F4",
"e. c #F3F4F3",
"r. c #F5F5F3",
"t. c #F2F3F4",
"y. c #F0F4F4",
"u. c #F1F5F5",
"i. c #F2F4F4",
"p. c #F3F5F4",
"a. c #F2F5F5",
"s. c #F2F5F6",
"d. c #F3F5F7",
"f. c #F4F4F4",
"g. c #F5F4F4",
"h. c #F4F5F4",
"j. c #F5F5F4",
"k. c #F4F4F5",
"l. c #F5F4F5",
"z. c #F4F5F5",
"x. c gray96",
"c. c #F6F4F5",
"v. c #F6F5F5",
"b. c #F5F6F5",
"n. c #F6F6F5",
"m. c #F5F4F6",
"M. c #F4F5F6",
"N. c #F5F5F6",
"B. c #F4F5F7",
"V. c #F5F5F7",
"C. c #F6F5F6",
"Z. c #F5F6F6",
"A. c #F6F6F6",
"S. c #F5F5F5",
/* pixels */
"x.x.x.A.x.x.x.x.x.x.x.r.x.x.x.x.x.x.x.x.A.x.x.x.x.x.",
"x.x.x.A.x.x.x.x.u.0.w.5.w.0.w.0.x.x.x.x.x.x.x.x.x.A.",
"x.x.x.A.x.x.x.w.5.3.<.@.o.o.$.<.5.0.x.x.x.x.x.x.x.x.",
"x.x.x.x.x.u.5.1.%.{ J l k k l U $.1.5.u.x.x.x.x.x.x.",
"x.x.x.x.x.4.1.#.Y j 6 - * - 1 t A O.1.w.x.x.x.x.x.x.",
"x.x.x.x.2.-.%.Y s - O o     O * 7 B  .4.x.x.x.x.x.A.",
"x.x.x.7.>.:.( s = X           o % 5 S #.4.k.x.x.x.x.",
"x.x.x.u.w.O.z 2 O               X * t ^ <.4.k.x.x.x.",
"x.x.x.x.4.Q r @                   @ 4 v +.1.w.x.x.x.",
"x.x.x.w.;.Z 1 X                   X & t ^ ,.5.V.x.x.",
"V.x.x.w.} s &                       o 5 S $.1.u.x.x.",
"x.x.u.5.R r +                       X > g O.1.0.V.x.",
"x.x.u.1.F 7 @                         * a ` <.0.V.A.",
"x.x.x.=.m 2 o                         & y ~ ,.0.x.x.",
"x.x.x.$.n =                           # 0 I ,.w.A.x.",
"x.x.0.$.k & .                         + 0 P *.4.x.x.",
"x.x.w.$.x *                           # 0 K &.5.x.x.",
"x.x.w.=.c < X                         # 0 K ,.6.x.x.",
"x.x.w.<.M : X                         # w ! <.g.p.x.",
"x.x.5.<.H , X                       . = a ^ 2.x.r.x.",
"x.x.5.1.E 8 +                       X : f | w.A.x.x.",
"x.x.0.1. .y = X                     O 4 C $.u.x.x.x.",
"x.x.u.3.%.b 3 #                     & e I 1.r.x.x.x.",
"x.x.r.5.<.L w & o                 o , h | 7.x.x.x.A.",
"x.x.r.w.,. .g 5 $ X             X * q P <.x.x.x.x.x.",
"x.x.x.x.2.%.W i ; + .         O % 4 V  .w.x.A.x.u.x.",
"x.x.x.x.d.3.&.H q - $ o X X + * 4 f ) 1.x.x.x.x.x.x.",
"x.x.x.x.d.5.1.@.G u 5 ; % & > 9 h ^ ,.u.x.x.x.x.x.x.",
"x.x.x.x.d.k.4.5.#.E N a q q d G ' <.8.k.V.x.x.x.x.x.",
"x.x.x.x.d.V.x.x.d.1.@._ ^ / | *.4.d.V.x.x.x.x.x.x.x.",
"x.x.x.x.x.x.x.x.x.x.x.0.3.5.0.u.x.x.x.x.x.x.x.x.x.x.",
"x.x.x.x.x.x.x.x.x.V.x.A.A.V.x.x.r.x.x.x.A.x.x.x.x.x."
};
