/* XPM */
static char *_f1366b3c0ec4492c234a57bd97d656eeLXfsRytMr3XnXOC[] = {
/* columns rows colors chars-per-pixel */
"32 32 23 1 ",
"  c #464646",
". c #4DFF00",
"X c #3C3C3C",
"o c #202020",
"O c #434343",
"+ c #3F3F3F",
"@ c #2C2C2C",
"# c #2D2D2D",
"$ c #323232",
"% c #353535",
"& c #3E3E3E",
"* c #373737",
"= c #313131",
"- c #585858",
"; c gray31",
": c #4C4C4C",
"> c gray16",
", c gray20",
"< c #232323",
"1 c #3A3A3A",
"2 c gray26",
"3 c #282828",
"4 c #414141",
/* pixels */
"   .........................XXXX",
"   .........................XXXX",
"   .........................XXXX",
"   ...ooXXXXXO  XX+  @oo#...XXXX",
"   ...ooXXXXXO  XX+..@oo#...XXXX",
"+++...oo$$%XX&++$$....oo*...$$$$",
"XXX...oo##$XXXXX#......oX...####",
"XXX...oo##$XXXXX#......oX...####",
"ooo...ooooooooooo......oo...oooo",
"ooo...ooooooooooo......oo...oooo",
"@@@...@@===......o....==@...@@@@",
"   ...  -...........X;-- ...    ",
"   ...  -............;-- ...    ",
"+++...  ..............:: ...++++",
"XXX...  .... ..........  ...XXXX",
"XXX... .... ................XXXX",
"###...#....X.......#........XXXX",
"###...#...X........##.......XXXX",
">>>...>>.,,.......<>>>......,,,,",
"ooo...ooooo.......ooooooo...oooo",
"ooo...ooooo.......ooooooo...oooo",
"111...oo,,........2113oo1...    ",
"   ...ooXX.........  @oo ...----",
"     @ooXX.... ....  @oo ...----",
"----.......... ..... @oo#...    ",
"---..........   .... @oo#...    ",
";;;..........4OO.....@oo#...OOOO",
"XXXX..oo#####*XX#....@oo#...XXXX",
"XXX...oo#####*XX##....oo#...XXXX",
"XXX...oo#####*XX##....oo#...XXXX",
"XXX...oo#####*XX##%....o#...XXXX",
"XXX...oo#####*XX##% ...o#...XXXX"
};
