/* XPM */
static char *_0a067e32f314c2db5c1619831961049fLlvmFr5lSqKgFHg[] = {
/* columns rows colors chars-per-pixel */
"31 32 148 2 ",
"   c #000000",
".  c #0B0400",
"X  c #110700",
"o  c #160900",
"O  c #1B0C00",
"+  c #220E00",
"@  c #251000",
"#  c #2D1500",
"$  c #351A00",
"%  c #3A1C00",
"&  c #3F2100",
"*  c #442300",
"=  c #492600",
"-  c #4C2900",
";  c #522C00",
":  c #563000",
">  c #5C3400",
",  c #653C00",
"<  c #693F00",
"1  c #6D4300",
"2  c #724600",
"3  c #714A00",
"4  c #7D4B00",
"5  c #7C5200",
"6  c #8A5400",
"7  c #865A00",
"8  c #965900",
"9  c #985C02",
"0  c #8C6100",
"q  c #926201",
"w  c #956C02",
"e  c #9B6E01",
"r  c #9D7203",
"t  c #A17505",
"y  c #A37A06",
"u  c #A87907",
"i  c #A37108",
"p  c #AB7C0C",
"a  c #B0790F",
"s  c #B26F12",
"d  c #B37214",
"f  c #BB7614",
"g  c #C57E1D",
"h  c #A98007",
"j  c #AB820A",
"k  c #B78A0E",
"l  c #B78915",
"z  c #B98E15",
"x  c #BD9415",
"c  c #BE931F",
"v  c #BE9221",
"b  c #C59719",
"n  c #C78327",
"m  c #C38228",
"M  c #C68A2F",
"N  c #C99C23",
"B  c #C59B29",
"V  c #C58F30",
"C  c #CB8930",
"Z  c #CA8F3A",
"A  c #C69537",
"S  c #CB9336",
"D  c #C89A32",
"F  c #D2A631",
"G  c #D7AA35",
"H  c #D0A439",
"J  c #CC9943",
"K  c #D99E4F",
"L  c #D3A943",
"P  c #DBAD41",
"I  c #DDB24F",
"U  c #D1A450",
"Y  c #D6AE55",
"T  c #D7A45A",
"R  c #D8AC5D",
"E  c #DAB25B",
"W  c #E1B255",
"Q  c #E0B658",
"!  c #DAAC64",
"~  c #D9B160",
"^  c #DDB36A",
"/  c #DFB376",
"(  c #DEBA79",
")  c #E1B762",
"_  c #E4BA62",
"`  c #E4BB6C",
"'  c #E3BD73",
"]  c #E8BE74",
"[  c #E3BE79",
"{  c #E9C07E",
"}  c #E2BA85",
"|  c #E5BE8B",
" . c #E5C285",
".. c #EAC484",
"X. c #E7C38D",
"o. c #EAC78D",
"O. c #EFC990",
"+. c #EACA9B",
"@. c #F0CF9E",
"#. c #E6C7A0",
"$. c #E7CAA5",
"%. c #EBCCA1",
"&. c #EACDA8",
"*. c #EDD0A4",
"=. c #EFD2AA",
"-. c #EFD5B4",
";. c #EFD9BD",
":. c #F1D7B4",
">. c #F1DABC",
",. c #F2DDC4",
"<. c #F3E1CB",
"1. c #F3E5D4",
"2. c #F5E8D7",
"3. c #F4E7D8",
"4. c #F4E9DC",
"5. c #F4EDE6",
"6. c #F5EEE6",
"7. c #F5EFE6",
"8. c #F5EEE7",
"9. c #F5EFE7",
"0. c #F5EEE5",
"q. c #F5EDE3",
"w. c #F5EFE8",
"e. c #F5F0E9",
"r. c #F5F0EA",
"t. c #F5F1EB",
"y. c #F5F1EC",
"u. c #F6F1EC",
"i. c #F6F2ED",
"p. c #F5F2EE",
"a. c #F5F2EF",
"s. c #F6F2EE",
"d. c #F6F2EF",
"f. c #F6F3EF",
"g. c #F6F1EB",
"h. c #F5F3F0",
"j. c #F6F3F0",
"k. c #F6F4F1",
"l. c #F6F4F2",
"z. c #F6F5F3",
"x. c #F6F5F4",
"c. c #F6F5F5",
"v. c #F6F6F5",
"b. c #F6F6F6",
"n. c #F6F6F7",
"m. c #F6F7F7",
"M. c gray97",
"N. c #F6F6F6",
/* pixels */
"M.M.c.m.c.m.c.m.n.n.n.h.8.4.5.a.5.5.a.n.M.M.M.x.c.c.m.c.m.c.m.",
"M.M.m.c.m.c.m.c.n.a.5.4.1.;.#.$.$.,.3.5.h.M.M.M.c.c.c.m.c.m.m.",
"M.c.c.m.m.c.c.c.w.4.,.&.! g d d d V } ,.1.p.M.M.c.c.m.c.c.m.M.",
"M.l.c.c.c.c.m.p.4.,.} n 8 , * = > 4 d ^ >.3.h.M.c.m.c.m.m.c.c.",
"m.c.m.c.m.c.e.<.,.| g 4 % + . . X $ , i R ,.e.M.c.m.c.m.c.m.c.",
"c.m.c.m.c.c.4.1.-.C 4 @ .         . @ > u ' 1.e.c.c.m.c.m.c.m.",
"m.c.m.c.m.k.e.<.K 9 % .             . @ , v %.1.p.m.c.m.c.m.c.",
"c.m.c.c.M.m.p.$.f > O                 . = w E ,.4.c.m.c.m.c.m.",
"m.c.m.c.M.h.8./ 9 @                     @ 1 c *.1.5.c.c.c.c.m.",
"c.m.c.m.M.p.1.Z < X                       & r ^ ,.4.c.M.c.m.c.",
"m.c.m.c.M.h.&.d -                         O 7 L -.4.M.M.m.c.m.",
"c.m.c.m.M.8./ 9 * .                       X 1 B =.1.k.M.c.m.c.",
"m.c.m.c.m.4.T 6 $                         . > z o.<.l.M.m.c.m.",
"c.m.c.m.c.1.J 4 O                         . - u [ ,.p.m.c.m.c.",
"m.c.m.c.c.<.A , .                           & t ' ,.e.m.m.c.m.",
"c.m.c.m.z.,.A > .                           % t ` ,.5.m.c.m.c.",
"c.c.M.M.p.<.A > .                           * r ) >.8.M.M.c.c.",
"c.c.c.M.e.1.J 3 O                           & r ) ,.h.M.M.x.c.",
"m.c.M.M.f.1.U 1 o                         . * y ] 1.M.M.m.c.c.",
"c.m.M.m.e.1.! 4 o                         . : k { 4.M.M.c.m.c.",
"m.c.m.c.e.1.[ q #                         o 1 b +.p.m.c.m.c.m.",
"c.m.m.m.p.1.%.p ; X                       O 5 F ;.c.m.m.c.m.c.",
"c.m.c.m.h.3.,.D 2 # .                   . * r E 1.M.m.c.m.c.m.",
"m.c.m.c.M.8.1.~ q = .                   X , x o.e.M.c.m.c.m.c.",
"c.m.c.m.c.p.<.+.l , # .               . $ w G ,.M.M.m.c.m.c.m.",
"m.c.m.c.m.c.<.-.Y e ; +             . @ , x ..q.M.k.c.m.c.m.c.",
"c.m.c.m.c.m.l.<.+.B 5 $ o .       X # ; y I >.k.M.c.c.c.m.c.m.",
"m.c.m.c.m.c.M.5.<.[ x 1 * @ X X O % : r G *.p.m.c.c.c.m.c.m.c.",
"c.m.c.m.c.m.c.5.1.,.' x 7 , * % = 3 p G O.4.m.c.c.m.c.m.m.c.m.",
"m.c.m.c.m.c.c.M.w.5.1. .H x y r j N W @.q.m.c.m.m.c.m.c.c.m.c.",
"c.m.c.m.c.m.c.c.M.c.h.8.>.o.` _ ] @.<.g.c.c.c.m.c.m.c.m.c.c.m.",
"m.c.m.c.m.c.m.c.M.M.m.M.M.p.4.2.4.f.m.M.M.m.m.c.m.c.m.c.m.M.m."
};
