/* XPM */
static char *a0c2acc63bb440428bae7582f8d6e3b6cLXmXZXrS8SAIAnG[] = {
/* columns rows colors chars-per-pixel */
"32 27 139 2 ",
"   c None",
".  c #141314",
"X  c #171217",
"o  c #171515",
"O  c #171714",
"+  c #171616",
"@  c gray9",
"#  c #181616",
"$  c #191717",
"%  c #1A1916",
"&  c #1A1A17",
"*  c #1C1C15",
"=  c #161A1A",
"-  c #191818",
";  c #181819",
":  c #1B1A18",
">  c #1D1919",
",  c #1C1A19",
"<  c #1C1B1B",
"1  c #1B1C1A",
"2  c #1E1D18",
"3  c #1D1D1A",
"4  c #1D1D1B",
"5  c #1F1E1B",
"6  c #1E1D1D",
"7  c #1E1E1C",
"8  c #1E1F1C",
"9  c #1F1F1C",
"0  c #1E1F1D",
"q  c #1F201D",
"w  c #20201B",
"e  c #22221B",
"r  c #21211E",
"t  c #22201F",
"y  c #21221F",
"u  c #25241F",
"i  c #29251B",
"p  c #1A1D23",
"a  c #1E2226",
"s  c #222220",
"d  c #222320",
"f  c #232320",
"g  c #242321",
"h  c #232421",
"j  c #242421",
"k  c #242522",
"l  c gray14",
"z  c #292522",
"x  c #252822",
"c  c #272823",
"v  c #272824",
"b  c #272924",
"n  c #2B2823",
"m  c #292925",
"M  c #292926",
"N  c #2A2B26",
"B  c #292C24",
"V  c #2B2C27",
"C  c #2B2D27",
"Z  c #2B2C29",
"A  c #2C2D28",
"S  c #2D2E29",
"D  c #302D25",
"F  c #312F2D",
"G  c #263025",
"H  c #32322E",
"J  c #39332C",
"K  c #373F2E",
"L  c #363C30",
"P  c #3A4435",
"I  c #474035",
"U  c #4B4336",
"Y  c #4E4637",
"T  c #41413C",
"R  c #424B3C",
"E  c #504737",
"W  c #44523D",
"Q  c #42553D",
"!  c #51534E",
"~  c #595754",
"^  c #5B5953",
"/  c #675C43",
"(  c #695D48",
")  c #556C4C",
"_  c #5C7550",
"`  c #6D6347",
"'  c #6E604D",
"]  c #776B4E",
"[  c #796B4E",
"{  c #606059",
"}  c #766B51",
"|  c #7B6E52",
" . c #7F7256",
".. c #6A6965",
"X. c #897B59",
"o. c #978560",
"O. c #988665",
"+. c #9B8B66",
"@. c #9B8B68",
"#. c #A18F6E",
"$. c #A4936D",
"%. c #A8996D",
"&. c #A99870",
"*. c #B19F72",
"=. c #B6A079",
"-. c #8A8986",
";. c #8A8A86",
":. c #8C8B86",
">. c #8D8E87",
",. c #A39981",
"<. c #A09F9A",
"1. c #A5A39C",
"2. c #A8A6A0",
"3. c #D8BF84",
"4. c #D9BE87",
"5. c #C5B799",
"6. c #D9C188",
"7. c #DAC089",
"8. c #DAC18D",
"9. c #EED293",
"0. c #EED294",
"q. c #F0D694",
"w. c #F2D795",
"e. c #F2D796",
"r. c #F2D598",
"t. c #F5D999",
"y. c #FADD9B",
"u. c #FBDE9B",
"i. c #FCDD9B",
"p. c #FCDE9B",
"a. c #FBDE9D",
"s. c #FDDF9D",
"d. c #FCE099",
"f. c #FCE09C",
"g. c #FDE09C",
"h. c #D5C5A5",
"j. c #D7C7A7",
"k. c #C3C1BC",
"l. c #E9E8DF",
/* pixels */
"                                                                ",
"                                                                ",
"                                                                ",
"                                                                ",
"                    +         $ +                               ",
"                - k c & $ r S S S S k                           ",
"                  r V 3 Z S S S S S S n                         ",
"                $ 1 3 V S S S S S V 3 3 3                       ",
"                  $ 9 S S v h 9 k U 7.r.]                       ",
"                    s v v n =.3.9.w.g.g.a.                      ",
"                    h k 9 %.s.s.i.d.d.0.o.z                     ",
"                    s k 9 8.w.3.t.g.i.:.>.&                     ",
"                    3 h q  .k.-.^ s.y.-...-                     ",
"                    O > 9 I l.F 1.y.9.=.[ *                     ",
"                    > &.} #.~ { X.d.d.6.i                       ",
"                      E A ( +.$.+./ e q                         ",
"                            + T R V P W =                       ",
"                            ( s 1.) h.P G n =                   ",
"                          E O.! 2._ 5.h.c H p                   ",
"                          | ` < Q L &.J                         ",
"                              - a =                             ",
"                              . a +                             ",
"                                X                               ",
"                                                                ",
"                                                                ",
"                                                                ",
"                                                                "
};
