/* XPM */
static char *_17957b3b14b435bb86ef3bb188856d2Ma7mcnSvjzIhwcJW[] = {
/* columns rows colors chars-per-pixel */
"32 32 150 2 ",
"   c #040304",
".  c #0A0505",
"X  c #000608",
"o  c #0A0709",
"O  c #01090C",
"+  c #0C0B0B",
"@  c #140303",
"#  c #190404",
"$  c #110C0C",
"%  c #1B0909",
"&  c #040E12",
"*  c #0A0F11",
"=  c #170F14",
"-  c #190D10",
";  c #0D1316",
":  c #05131A",
">  c #0B161C",
",  c #141414",
"<  c #1B1414",
"1  c #171A1B",
"2  c #1C1C1C",
"3  c #230505",
"4  c #2B0505",
"5  c #230A0A",
"6  c #2E0909",
"7  c #330202",
"8  c #3B0707",
"9  c #340B0B",
"0  c #3B0909",
"q  c #251616",
"w  c #2D1111",
"e  c #221C1C",
"r  c #2C1E1E",
"t  c #351212",
"y  c #3C1519",
"u  c #351A1A",
"i  c #071921",
"p  c #081D27",
"a  c #0D1F28",
"s  c #151E28",
"d  c #07222F",
"f  c #0B212C",
"g  c #1C2021",
"h  c #072431",
"j  c #0B2735",
"k  c #0F2A37",
"l  c #0C2C3C",
"z  c #202020",
"x  c #282727",
"c  c #22292D",
"v  c #2C2C2C",
"b  c #322727",
"n  c #3E2121",
"m  c #3B242F",
"M  c #232835",
"N  c #262B39",
"B  c #382530",
"V  c #343434",
"C  c #3C3C3C",
"Z  c #460606",
"A  c #450A0A",
"S  c #4A0A0A",
"D  c #540A0A",
"F  c #5C0B0B",
"G  c #430F12",
"H  c #560E10",
"J  c #5A0F11",
"K  c #4B1112",
"L  c #4A171C",
"P  c #531313",
"I  c #5E1111",
"U  c #640B0B",
"Y  c #6D0D0D",
"T  c #740D0D",
"R  c #7C0F0F",
"E  c #6D1010",
"W  c #681D1D",
"Q  c #761414",
"!  c #781010",
"~  c #451A20",
"^  c #5F2934",
"/  c #662C37",
"(  c #7D2932",
")  c #6B3434",
"_  c #0E3244",
"`  c #163547",
"'  c #10374A",
"]  c #1A3649",
"[  c #0F3E54",
"{  c #133D53",
"}  c #333A4D",
"|  c #213E53",
" . c #2A3D52",
".. c #303E52",
"X. c #42394B",
"o. c #543343",
"O. c #154057",
"+. c #13435A",
"@. c #184258",
"#. c #454545",
"$. c #4E4E4E",
"%. c #594747",
"&. c #4D5353",
"*. c #585858",
"=. c #6F6262",
"-. c #707272",
";. c #767A7A",
":. c #800F0F",
">. c #831111",
",. c #8A1111",
"<. c #941212",
"1. c #9B1313",
"2. c #A21313",
"3. c #AB1616",
"4. c #A11C1F",
"5. c #B31515",
"6. c #BC1717",
"7. c #B11718",
"8. c #B81B1D",
"9. c #B41F22",
"0. c #96242B",
"q. c #9D252B",
"w. c #842932",
"e. c #902830",
"r. c #A42025",
"t. c #AE2024",
"y. c #A22329",
"u. c #B12024",
"i. c #C11717",
"p. c #C5191A",
"a. c #CD1919",
"s. c #D31919",
"d. c #D21919",
"f. c #D31A1A",
"g. c #D11919",
"h. c #D41A1A",
"j. c #D51A1A",
"k. c #D61A1A",
"l. c #D31919",
"z. c #826E6E",
"x. c #817B7B",
"c. c #848787",
"v. c #A9ACAC",
"b. c #B2B2B2",
"n. c #C1BFBF",
"m. c #D3D5D5",
"M. c #D7D8D8",
"N. c #DADADA",
"B. c #E9EAEA",
"V. c white",
/* pixels */
"#.#.#.#.#.v z z C C C C C #.#.#.C C #.#.#.v z z v v V C C C C C ",
"#.#.#.#.#.V z z C C C C C #.#.#.C C C #.#.v z z v v V C C C C C ",
"#.#.#.#.#.v z z C C C C C C C #.C V C #.#.v e z v v V C C C C C ",
"#.#.#.$.#.v z z C C C C z + $ + + + o , #.v z z v v V C C C C C ",
"#.#.#.#.#.v z g C C C z S ,.,.,.,.,.,.! 2 x z z v v V C C C C C ",
"#.C C #.#.x z z V V 2 K <.d.d.d.d.d.j.6.U q 1 z C V V V V V v V ",
"C C C C C x z z v e 9 2.j.d.a.d.a.a.d.g.p.4 , z C C C v v V v v ",
"C C C C C x z e z @ 3.d.a.a.d.a.d.i.5.6.i.8 < 2 V V V v v v v v ",
"z g z z z z z z 1 @ 3.g.a.a.a.a.a.T % 0 i.6.A   . o 2 z z z z z ",
"z z z z z z z g <   4 2.d.d.6.Z 7 -.;.3 i.g.S 0 1.,.% 1 z z z z ",
"v v v v v v v v x $ -.) <.5.W ;.c.m.v.3 i.j.S D f.p.R w z v v v ",
"#.#.C V v V C #.#.2 N.&.U <.x N.V.m.z.U 6.1.U ! d.d.d.Y u V #.#.",
"#.#.b 3 3 3 b #.#., b.%.T 1.n m.M.=.F g.p.4 R p.u.9.p.g.R q C #.",
"C 2 A 6.6.6.S z V o , ,.a.a.3.t < Q p.a.6.4 :.w.| } u.f.a.,.$ V ",
"C 2 S a.g.g.S 2 C v . ,.d.a.a.2.1.6.j.5.A ,./ M O < 7.d.f.<.+ V ",
"C 2 S g.g.a.S e V e E F <.d.d.j.k.j.2.F ! /  .h   @ 5.h.h.1.+ V ",
"v z t ,.p.a.:.t x U i.~ y R R R R R Y F w. .' : X q Y R R I z V ",
"v v z 5 1.a.h.,.Z 1.r.X.p . 3   3 @ A t.| +.i   1 x o o + 2 C C ",
"b v x z % 1.a.a.1.# ] { f 8 1.4 ,.D D t. .| > + x @ @ z v V V V ",
"z z z z 1 5 ,.f.1.o ' p ; < 9 1.S Y 6.p.t.t.A   6 2.3.0 , z z z ",
"z 2 z z z < w A 0 < ; ; 1 2 < A R U L o.o.K @ 8 1.a.a.2.A , z z ",
"C C V C C x , $ s V g C C g g f ^ m l [ h X : B e.a.f.f.1.K x #.",
"#.$.#.#.#.v z z C C #.#.c & O ' +.+.{ j   & ` +.} 0.1.6.f.1.+ $.",
"#.#.#.#.#.v z z C C #.z g N - { +.{ k o O l O.+.O.] ; >.6.:.$ $.",
"*.*.*.*.*.V e z C C C , H 8.4. .O.f 1 C C ; l O._ * x q @ @ + C ",
"*.*.*.*.*.V z e V , $ . @ U p.y.q.G 2 #.#.z ; : > g V C V V V #.",
"$.&.&.$.$.v z z v . F Y Y ,.j.j.h.2.P x #.v < ; z v V #.C #.#.#.",
"C C C C C x z z z . R ,.,.,.,.,.,.,.F + C v z z v v V C C C C C ",
"C C C C C x z z x + . + . + + + o + + , #.v z z v v V C C C C C ",
"C C C C C v z z v x x x x V V C x x v #.#.v z z v v V C C C C C ",
"C C C C C x z z v v v v v V C C v v V #.#.v z z v v V C C C C C ",
"C C C C C x z z V v v v v C C C v V V #.#.v z z v v V C C C C C "
};
