/* XPM */
static char *f4a3d618202d4358909bc9d43eeee7f9A2nxnTz6oKcWshtt[] = {
/* columns rows colors chars-per-pixel */
"32 32 134 2 ",
"   c #050404",
".  c #0C0303",
"X  c #04090C",
"o  c #0D0C0C",
"O  c #120404",
"+  c #1B0404",
"@  c #150B0C",
"#  c #1B0C0C",
"$  c #1F0D11",
"%  c #0A1317",
"&  c #03151C",
"*  c #0D1519",
"=  c #131313",
"-  c #1C1313",
";  c #12181F",
":  c #1D1D1D",
">  c #220404",
",  c #2C0505",
"<  c #230A0D",
"1  c #310506",
"2  c #3B0707",
"3  c #3A0A0A",
"4  c #221515",
"5  c #2A1313",
"6  c #291817",
"7  c #25161D",
"8  c #261E1E",
"9  c #2E1B1B",
"0  c #381616",
"q  c #321A1A",
"w  c #3C1B1B",
"e  c #061D27",
"r  c #0B1E27",
"t  c #081F2A",
"y  c #131C20",
"u  c #181820",
"i  c #231F28",
"p  c #0A202C",
"a  c #172125",
"s  c #1B2124",
"d  c #0B2633",
"f  c #0F2E3E",
"g  c #1E2531",
"h  c #122D3C",
"j  c #212121",
"k  c #2C2121",
"l  c #2C2C2C",
"z  c #3B2C2C",
"x  c #2F3131",
"c  c #333333",
"v  c #3C3C3C",
"b  c #430808",
"n  c #4D0A0A",
"m  c #500A0A",
"M  c #5E0B0B",
"N  c #4E1313",
"B  c #5D1A1A",
"V  c #620B0B",
"C  c #6E0D0D",
"Z  c #750E0E",
"A  c #780C0C",
"S  c #7B1010",
"D  c #781619",
"F  c #731B1F",
"G  c #4A1D24",
"H  c #403F3F",
"J  c #533F3F",
"K  c #7F232A",
"L  c #6B2F3B",
"P  c #762A34",
"I  c #7C2C36",
"U  c #742D39",
"Y  c #643333",
"T  c #0E3142",
"R  c #0D3548",
"E  c #113244",
"W  c #13394C",
"Q  c #143E54",
"!  c #193E54",
"~  c #323445",
"^  c #223E53",
"/  c #2F3D51",
"(  c #433646",
")  c #603240",
"_  c #144259",
"`  c #244056",
"'  c #464646",
"]  c #444A4A",
"[  c #4D4D4D",
"{  c #564242",
"}  c gray33",
"|  c #585858",
" . c #745656",
".. c #6A6E6E",
"X. c #8A0F0F",
"o. c #910F0F",
"O. c #851111",
"+. c #8D1313",
"@. c #931313",
"#. c #9C1313",
"$. c #A21313",
"%. c #AC1515",
"&. c #A5191B",
"*. c #B41616",
"=. c #BD1717",
"-. c #BC1718",
";. c #B71A1C",
":. c #BE1B1D",
">. c #BB1E21",
",. c #9D2025",
"<. c #94262D",
"1. c #9D262C",
"2. c #882932",
"3. c #AF2024",
"4. c #A2252B",
"5. c #C21717",
"6. c #C4191A",
"7. c #CC1919",
"8. c #D51A1A",
"9. c #D41A19",
"0. c #D21919",
"q. c #C01D20",
"w. c #8B8383",
"e. c #878B8B",
"r. c #959595",
"t. c #9E9393",
"y. c #989B9B",
"u. c #B8B4B4",
"i. c #BFC1C1",
"p. c #CECECE",
"a. c gray81",
"s. c #DEDFDF",
"d. c #E9EAEA",
"f. c white",
/* pixels */
"' ' ' ' ' l j j v v v v v ' ' ' v v H ' ' l j j l l c v v v v v ",
"' ' ' ' ' c j j v v v v v ' ' ' v v H ' ' l j j l l c v v v v v ",
"' ' ' ' ' l j : v v v v v ' ' v l c x c c j : : x l c v v v v v ",
"' ' ' ' ' l j j v v v v v H v - O O O O O O @ : l l c v v v v v ",
"' ' ' ' ' l : : v v v v v v - O.%.%.%.%.%.%.O.o l l c v v v v v ",
"' v v v ' l j j c c c v l 6 Z =.0.0.0.0.0.0.=.Z 4 l c c l c c c ",
"v v v v v l : j l l c v l + =.9.0.0.0.7.7.7.0.6.V q l l l l l l ",
"v v v v v l j j l l c c 8 b =.%.$.*.7.0.7.0.0.7.7.2 : l l l l l ",
": j j j : j j j j j j = b 5.6.b O N =.5.7.0.0.0.5.2 o j j : j j ",
": j j j j : j j : j : o b 7.7.1 ..t., , #.0.7.=.b . = j j j j j ",
"l l l l l l l l l = = o b 0.7., e.d.y.r.Y o.%.B w.x = l l l l l ",
"' ' ' ' ' ' v l c n n n V X.5.Z  .i.f.f.' V @.: s.} : ' ' ' ' ' ",
"' ' ' ' ' v 9 > b 5.0.q.F $ #.6.Z { a.a.J A $.w u.H 8 ' ' ' ' ' ",
"J ` H v v - Z 6.5.7.6.L _ E # #.7.+.- - @.7.7.%.5   8 H H H J ` ",
"H v v z @ O.5.9.9.6.Y ` E & h ,.8.6.$.$.5.0.0.=.+ j v v v v H v ",
"v v v l . $.9.7.=.M a p r g P >.8.3.U 7.9.9.%.n   : l v v v v v ",
"x l l j . $.8.0.%.. = X % ` q.0.0.<.^ D X.O.Z b b b 0 x v v v v ",
"l l l l @ +.*.%.@.@ l 8 7 ( &.6.0.1.~ < > + m 7.0.0.C = v v v v ",
"l l l j j # + + + l @ C :.&.1 #.0.7.:.=.=.=.=.0.0.0.C o x x x x ",
"8 : j : @ S #.M   : X j U 7.#.n O.9.0.0.0.9.0.0.0.8.C   j j j j ",
"j s : # C =.9.*.V @ p R / P 6.X.V M M V M V V M M M 0 = 8 j j j ",
"c c 9 M 7.9.0.:.K ; W _ _ ` 2.1.G & & & & X     = = k ' ' ' ' ' ",
"' : n 0.0.*.;.I _ _ _ _ _ W W W W _ _ _ _ p o : ' ' ' | | | | | ",
"' : n 7.5.2 g ^ _ _ _ _ T X o X d _ _ _ _ ! f X v ' [ | | | | | ",
"| ' z 2 2 8 % p _ _ _ f ; c c c s p _ _ P ,.F   l l c ' ' ' ' ' ",
"| | ' x x l = * p p p a x ' ' ' j # L U >.$.b   j l c ' ' ' ' ' ",
"[ [ [ [ [ l j : @ o = l H ' H c q C 0.8.8.O.3 3 8 l c ' H ' ' ' ",
"H v H v v l j s l l l l l c v o M *.=.*.*.*.;.$.+ j c v v v v v ",
"v v v v v l : j l l l x x c v = . + + + + + + +   : x v v v v v ",
"v v v v v l : j x l l l l c v l j 8 j x x 8 = = : l c v v v v v ",
"v v v v v k j j l l l l l v v v x l c ' ' l j j l l x v v v v v ",
"v v v v v l j j l l x l l c v v l l v ' ' l j j l l x v v v v v "
};
