/* XPM */
static char *_cdad66eb23642e6f408ef69e4e4e306oPzam2AyZ2sc9quP[] = {
/* columns rows colors chars-per-pixel */
"32 32 157 2 ",
"   c #030203",
".  c #0B0404",
"X  c #020709",
"o  c #070B0D",
"O  c #0C0B0B",
"+  c #130404",
"@  c #1A0404",
"#  c #150B0B",
"$  c #1B0C0D",
"%  c #040D12",
"&  c #0D1519",
"*  c #141414",
"=  c #1B1415",
"-  c #141618",
";  c #10181B",
":  c #1B1B1B",
">  c #200404",
",  c #2A0505",
"<  c #210A0C",
"1  c #2C0A0A",
"2  c #340707",
"3  c #3B0707",
"4  c #320B0B",
"5  c #251515",
"6  c #2F1212",
"7  c #2A1318",
"8  c #221E1E",
"9  c #3C1010",
"0  c #301B1B",
"q  c #061C25",
"w  c #081C26",
"e  c #3D1D24",
"r  c #07202C",
"t  c #0A212C",
"y  c #1B2225",
"u  c #1C212C",
"i  c #0A2533",
"p  c #072836",
"a  c #0A2836",
"s  c #0C2C3B",
"d  c #132D3D",
"f  c #212121",
"g  c #2A2323",
"h  c #2C2C2C",
"j  c #362222",
"k  c #392727",
"l  c #302C2C",
"z  c #3E2935",
"x  c #333333",
"c  c #3C3C3C",
"v  c #490505",
"b  c #450909",
"n  c #4E0909",
"m  c #540606",
"M  c #530A0B",
"N  c #5B0C0C",
"B  c #451212",
"V  c #48151A",
"C  c #5F1010",
"Z  c #640C0C",
"A  c #6C0E0E",
"S  c #740D0D",
"D  c #7B0F0F",
"F  c #611010",
"G  c #68191D",
"H  c #6D1C22",
"J  c #5D3C3C",
"K  c #6F232B",
"L  c #652F2F",
"P  c #792626",
"I  c #772828",
"U  c #692730",
"Y  c #6B2F3B",
"T  c #752B35",
"R  c #7C2C36",
"E  c #762D38",
"W  c #67313E",
"Q  c #0D3345",
"!  c #103446",
"~  c #1C384A",
"^  c #123E54",
"/  c #1E3F54",
"(  c #293546",
")  c #293B4E",
"_  c #3F3545",
"`  c #333C4F",
"'  c #3A3B4D",
"]  c #333445",
"[  c #213E53",
"{  c #4E3646",
"}  c #40384A",
"|  c #533646",
" . c #5F3341",
".. c #0F445D",
"X. c #134057",
"o. c #1C4056",
"O. c #13435A",
"+. c #1B4259",
"@. c #204055",
"#. c #464646",
"$. c #464848",
"%. c #4D4D4D",
"&. c #5C4242",
"*. c #4B5151",
"=. c #555656",
"-. c #585858",
";. c #840F0F",
":. c #8E0F0F",
">. c #851010",
",. c #8C1111",
"<. c #801618",
"1. c #931212",
"2. c #991313",
"3. c #A31414",
"4. c #AA1414",
"5. c #B21616",
"6. c #BC1717",
"7. c #B81A1B",
"8. c #931F24",
"9. c #BB1E21",
"0. c #96262D",
"q. c #9D252B",
"w. c #822A34",
"e. c #8F2931",
"r. c #AC2125",
"t. c #B12024",
"y. c #C31717",
"u. c #CC1817",
"i. c #C51B1D",
"p. c #C11C1E",
"a. c #C51819",
"s. c #CB1919",
"d. c #C91818",
"f. c #CD1919",
"g. c #CF1919",
"h. c #CE1919",
"j. c #CD1919",
"k. c #D61817",
"l. c #D01919",
"z. c #D11919",
"x. c #D21919",
"c. c #D31919",
"v. c #D31A1A",
"b. c #D71919",
"n. c #D51A1A",
"m. c #D61A1A",
"M. c #D51919",
"N. c #D31919",
"B. c #818282",
"V. c #868888",
"C. c #BCBCBC",
"Z. c #C2C2C2",
"A. c #CBC9C9",
"S. c #D9D9D9",
"D. c #F5F6F6",
"F. c white",
"G. c #E7E7E7",
/* pixels */
"#.#.#.#.#.h f f c c c c x x c c x x x c #.h f f h h x c c c c c ",
"#.#.#.#.#.h f f c c c c h O O O . . . O h h f f h h x c c c c c ",
"#.#.#.#.#.h f 8 c c c f 9 1.1.1.1.1.1.1.B - f f h h x c c c c c ",
"#.#.#.$.#.h 8 y c c h B ,.z.g.z.z.z.z.z.,.b * f h h x c c c c c ",
"$.$.#.#.#.h f f c x O D n.l.l.g.g.g.g.g.z.2.1 = h x x c c c c c ",
"c c c c c h f 8 x h # D g.y.y.d.g.g.g.g.g.g.4.@ f x x x x l x x ",
"c c c c c h y 8 f $ ,.a.1., , 3.l.z.g.g.g.z.5.@ h c c h l h h h ",
"c c c c c h f 8 f + 4.n.;.- B.L m A g.g.z.4.v . h c x h h h h h ",
"f 8 f f : f f f - + 4.n.;.f G.V.*.&.,.y.4.I $.. - f f f f f : f ",
"f f f f f f f f - + 1.d.:.k A.D.F.Z.$ 4.m =.S.: * f : f f f f f ",
"h h h h h h h h l h $ >.u.3.j C.F.Z.$ 4.m =.S.: f h h h h h h h ",
"#.#.#.$.#.#.#.#.%.: . D M.d.:.J *.&.1.a.4.I #.O x #.#.#.#.#.#.#.",
"#.#.$.#.$.#.l h k N N A 1.z.z.D m S u.z.m.:.    : x #.$.#.$.$.$.",
"c c c #.c x 6 , M d.M.A n 4.u.z.z.z.z.g.5.D , , , 0 c c c c #.c ",
"c c c c x O :.d.a.p.i.i.>.2 5.a.y.y.y.a.M B 7.a.d.A * x c c c c ",
"c c c c x O 2.k.r._ ' 0.y.1.2 , , , , , y ~ { p.M.S * x c c c c ",
"h h l f 5 A 7.r.| X.r z e.5.. M 3 + Z u w s +. .r.4.C : x c c c ",
"x h l : @ 6.g.K s s X p | 6.m D A Z p.' q % s s 8.b.4.. x c c c ",
"h f h : > 6.n.S .     p { 9.5.b Z 6.r.` w     @ 2.b.3.. h x x x ",
"f y 8 - > 6.l.d.,.    a +.( < ,.A = ) +.q   @ 3.d.z.3.. : f f : ",
"f f f * > y.n.m.2..   i O.[ <.y.5.H O.O.w   @ 6.b.b.3.. - 8 f f ",
"c c c h 5 A S S Z -   e W E i.k.b.7.Y W 7   $ A S S Z g c #.#.#.",
"#.#.#.#.c O .   - h & G r.r.r.r.r.r.r.r.V & - . O O : =.-.-.-.-.",
"#.#.#.#.#.h y : h % Q / @.[ o.o./ / / [ +.s X : #.#.$.-.-.-.-.-.",
"=.-.-.-.-.x 8 * & Q X.O.X.O.X.w i O.O.X.O.X.s o f h x #.#.#.#.#.",
"-.-.-.-.-.x * . $ T R ' ..^ t y y a X.O.{ R U . # y x #.$.#.#.#.",
"*.%.%.$.x f 4 3 Z d.k.w.] a - c h ; ! _ q.b.6.n 3 6 f x c c #.#.",
"c c c g @ @ 2.g.g.z.u.z.;.O x c h f + 3.g.g.g.g.g.D + $ l c c c ",
"c c : B 5.5.a.l.u.u.u.z.>.. x c h g . 4.l.g.g.u.u.y.5.4.1 h c c ",
"c c * @ b b b b b v b b 1 X c c h f   3 b b b b b b b b + f c c ",
"c c g - - * O O * * * * * - x c h h - f f O O O * * * - - h c c ",
"c c c c c h f f h h h h h c c c h h x $.$.h 8 f h h x c c c c c "
};
